<?xml version="1.0" encoding="utf-8"?>
<!-- Generator: Adobe Illustrator 21.1.0, SVG Export Plug-In . SVG Version: 6.00 Build 0)  -->
<svg version="1.1" id="Layer_1" xmlns="http://www.w3.org/2000/svg" xmlns:xlink="http://www.w3.org/1999/xlink" x="0px" y="0px"
	 viewBox="0 0 368.5 226.8" style="enable-background:new 0 0 368.5 226.8;" xml:space="preserve">
<style type="text/css">
	.st0{fill:none;stroke:#4682B4;stroke-width:4;stroke-miterlimit:10;}
</style>
<g>
	<path class="st0" d="M5.5,176.4v-126c0-28.5,13.5-42,42-42h71.7c28.5,0,42,13.5,42,42v126c0,28.5-13.5,42-42,42H47.5
		C19,218.4,5.5,204.9,5.5,176.4z M112,178.8c4.5,0,6-1.5,6-6V54c0-4.5-1.5-6-6-6H54.7c-4.5,0-6,1.5-6,6v118.8c0,4.5,1.5,6,6,6H112z"
		/>
	<path class="st0" d="M232.9,53.4l-42.3,13.8v-36l51.3-22.8h34.2v210h-43.2L232.9,53.4L232.9,53.4z"/>
</g>
</svg>
