<?xml version="1.0" encoding="utf-8"?>
<!-- Generator: Adobe Illustrator 21.1.0, SVG Export Plug-In . SVG Version: 6.00 Build 0)  -->
<svg version="1.1" id="Layer_1" xmlns="http://www.w3.org/2000/svg" xmlns:xlink="http://www.w3.org/1999/xlink" x="0px" y="0px"
	 viewBox="0 0 368.5 226.8" style="enable-background:new 0 0 368.5 226.8;" xml:space="preserve">
<style type="text/css">
	.st0{fill:none;stroke:#4682B4;stroke-width:4;stroke-miterlimit:10;}
</style>
<g>
	<path class="st0" d="M22.5,176.4v-126c0-28.5,13.5-42,42-42h71.7c28.5,0,42,13.5,42,42v126c0,28.5-13.5,42-42,42H64.5
		C36,218.4,22.5,204.9,22.5,176.4z M129,178.8c4.5,0,6-1.5,6-6V54c0-4.5-1.5-6-6-6H71.7c-4.5,0-6,1.5-6,6v118.8c0,4.5,1.5,6,6,6H129
		z"/>
	<path class="st0" d="M214.2,147.6c0-24,17.7-33.9,43.2-43.2l48.6-18c7.8-3,12-4.2,12-12V54c0-4.5-1.5-6-6-6h-47.4c-4.5,0-6,1.5-6,6
		v19.8h-42V50.4c0-28.5,13.5-42,42-42h60.6c28.5,0,42,13.5,42,42V84c0,24-17.7,33.9-43.2,43.2l-48.6,18c-7.8,3-12,4.2-12,12v21.6
		h104.4v39.6H214.2V147.6z"/>
</g>
</svg>
