<?xml version="1.0" encoding="utf-8"?>
<!-- Generator: Adobe Illustrator 21.1.0, SVG Export Plug-In . SVG Version: 6.00 Build 0)  -->
<svg version="1.1" id="Layer_1" xmlns="http://www.w3.org/2000/svg" xmlns:xlink="http://www.w3.org/1999/xlink" x="0px" y="0px"
	 viewBox="0 0 368.5 226.8" style="enable-background:new 0 0 368.5 226.8;" xml:space="preserve">
<style type="text/css">
	.st0{fill:none;stroke:#4682B4;stroke-width:4;stroke-miterlimit:10;}
</style>
<g>
	<path class="st0" d="M5.4,176.4v-126c0-28.5,13.5-42,42-42h71.7c28.5,0,42,13.5,42,42v126c0,28.5-13.5,42-42,42H47.4
		C18.9,218.4,5.4,204.9,5.4,176.4z M111.9,178.8c4.5,0,6-1.5,6-6V54c0-4.5-1.5-6-6-6H54.6c-4.5,0-6,1.5-6,6v118.8c0,4.5,1.5,6,6,6
		H111.9z"/>
	<path class="st0" d="M194.1,176.4v-22.8h43.2v19.8c0,4.5,1.5,6,6,6h52.8c4.5,0,6-1.5,6-6v-37.2c0-4.5-1.5-6-6-6H246V91.8h47.7
		c4.5,0,6-1.5,6-6V53.4c0-4.5-1.5-6-6-6h-48c-4.5,0-6,1.5-6,6v19.8h-43.2V50.4c0-28.5,13.5-42,42-42h62.4c28.5,0,42,13.5,42,42v28.2
		c0,14.7-5.1,24.9-18.9,32.4c15,6.6,21.3,17.7,21.3,32.4v33c0,28.5-13.5,42-42,42h-67.2C207.6,218.4,194.1,204.9,194.1,176.4z"/>
</g>
</svg>
